HIERARCHY
ROOT Hips
{
	OFFSET 0.00000 0.00000 0.00000
	CHANNELS 6 Xposition Yposition Zposition Zrotation Yrotation Xrotation 
	JOINT LHipJoint
	{
		OFFSET 0 0 0
		CHANNELS 3 Zrotation Yrotation Xrotation
		JOINT LeftUpLeg
		{
			OFFSET 1.53139 -1.83434 0.76626
			CHANNELS 3 Zrotation Yrotation Xrotation
			JOINT LeftLeg
			{
				OFFSET 2.56112 -7.03663 0.00000
				CHANNELS 3 Zrotation Yrotation Xrotation
				JOINT LeftFoot
				{
					OFFSET 2.59983 -7.14299 0.00000
					CHANNELS 3 Zrotation Yrotation Xrotation
					JOINT LeftToeBase
					{
						OFFSET 0.13742 -0.37757 2.00054
						CHANNELS 3 Zrotation Yrotation Xrotation
						End Site
						{
							OFFSET 0.00000 -0.00000 1.02897
						}
					}
				}
			}
		}
	}
	JOINT RHipJoint
	{
		OFFSET 0 0 0
		CHANNELS 3 Zrotation Yrotation Xrotation
		JOINT RightUpLeg
		{
			OFFSET -1.40122 -1.83435 0.76627
			CHANNELS 3 Zrotation Yrotation Xrotation
			JOINT RightLeg
			{
				OFFSET -2.54052 -6.98003 0.00000
				CHANNELS 3 Zrotation Yrotation Xrotation
				JOINT RightFoot
				{
					OFFSET -2.63179 -7.23079 0.00000
					CHANNELS 3 Zrotation Yrotation Xrotation
					JOINT RightToeBase
					{
						OFFSET -0.24131 -0.66299 2.03908
						CHANNELS 3 Zrotation Yrotation Xrotation
						End Site
						{
							OFFSET -0.00000 -0.00000 1.07391
						}
					}
				}
			}
		}
	}
	JOINT LowerBack
	{
		OFFSET 0 0 0
		CHANNELS 3 Zrotation Yrotation Xrotation
		JOINT Spine
		{
			OFFSET 0.01174 2.10302 -0.29778
			CHANNELS 3 Zrotation Yrotation Xrotation
			JOINT Spine1
			{
				OFFSET 0.00772 2.13227 -0.01247
				CHANNELS 3 Zrotation Yrotation Xrotation
				JOINT Neck
				{
					OFFSET 0 0 0
					CHANNELS 3 Zrotation Yrotation Xrotation
					JOINT Neck1
					{
						OFFSET -0.09219 1.60848 0.31481
						CHANNELS 3 Zrotation Yrotation Xrotation
						JOINT Head
						{
							OFFSET 0.13974 1.65456 -0.31134
							CHANNELS 3 Zrotation Yrotation Xrotation
							End Site
							{
								OFFSET 0.04742 1.69515 -0.14578
							}
						}
					}
				}
				JOINT LeftShoulder
				{
					OFFSET 0 0 0
					CHANNELS 3 Zrotation Yrotation Xrotation
					JOINT LeftArm
					{
						OFFSET 3.24909 1.02882 -0.23993
						CHANNELS 3 Zrotation Yrotation Xrotation
						JOINT LeftForeArm
						{
							OFFSET 5.32955 -0.00000 -0.00000
							CHANNELS 3 Zrotation Yrotation Xrotation
							JOINT LeftHand
							{
								OFFSET 3.69232 -0.00000 -0.00000
								CHANNELS 3 Zrotation Yrotation Xrotation
								JOINT LeftFingerBase
								{
									OFFSET 0 0 0
									CHANNELS 3 Zrotation Yrotation Xrotation
									JOINT LeftHandIndex1
									{
										OFFSET 0.53660 -0.00000 -0.00000
										CHANNELS 3 Zrotation Yrotation Xrotation
										End Site
										{
											OFFSET 0.43262 -0.00000 -0.00000
										}
									}
								}
								JOINT LThumb
								{
									OFFSET 0 0 0
									CHANNELS 3 Zrotation Yrotation Xrotation
									End Site
									{
										OFFSET 0.43922 -0.00000 0.43922
									}
								}
							}
						}
					}
				}
				JOINT RightShoulder
				{
					OFFSET 0 0 0
					CHANNELS 3 Zrotation Yrotation Xrotation
					JOINT RightArm
					{
						OFFSET -3.21387 0.93002 -0.34594
						CHANNELS 3 Zrotation Yrotation Xrotation
						JOINT RightForeArm
						{
							OFFSET -5.23431 -0.00000 0.00000
							CHANNELS 3 Zrotation Yrotation Xrotation
							JOINT RightHand
							{
								OFFSET -3.55301 -0.00000 -0.00000
								CHANNELS 3 Zrotation Yrotation Xrotation
								JOINT RightFingerBase
								{
									OFFSET 0 0 0
									CHANNELS 3 Zrotation Yrotation Xrotation
									JOINT RightHandIndex1
									{
										OFFSET -0.77252 -0.00000 -0.00000
										CHANNELS 3 Zrotation Yrotation Xrotation
										End Site
										{
											OFFSET -0.62283 -0.00000 -0.00000
										}
									}
								}
								JOINT RThumb
								{
									OFFSET 0 0 0
									CHANNELS 3 Zrotation Yrotation Xrotation
									End Site
									{
										OFFSET -0.63234 -0.00000 0.63234
									}
								}
							}
						}
					}
				}
			}
		}
	}
}
MOTION
Frames: 8
Frame Time: .0083333
-5.8854 17.4711 10.1298 0.6009 134.9190 -0.4998 0.0000 0.0000 0.0000 -23.2864 4.1801 -10.8965 4.0363 12.2085 36.4736 0.8694 -12.4562 -17.5932 0.0097 -0.6347 -1.7443 0.0000 0.0000 0.0000 19.2960 -3.7449 -5.5358 -3.2914 -11.1525 32.7959 -1.5872 6.8195 -22.5787 -0.3969 4.0451 -11.2035 -1.6183 1.8074 11.9117 0.4115 2.3103 1.4841 0.9643 1.2157 -5.2003 -12.3708 -8.1408 -16.9951 9.2573 -9.9665 29.3564 4.1459 -4.1876 14.0022 0.0000 -0.0000 0.0000 -88.0312 4.5831 16.5748 18.9851 -29.4002 -5.0236 -0.0000 -0.0000 5.4528 20.7577 22.7805 8.3490 -7.1250 0.0000 -0.0000 -8.7045 53.9556 -1.9275 0.0000 -0.0000 0.0000 85.9698 -4.2040 20.7622 -21.2397 32.1071 -6.1769 0.0000 0.0000 3.8142 -19.3729 6.7074 -2.3518 7.1250 -0.0000 -0.0000 5.4269 -22.8825 2.9022
-5.8343 17.4548 10.1508 0.5564 135.2740 -0.7450 0.0000 0.0000 0.0000 -23.3515 3.8280 -10.0084 3.8493 11.9571 35.5802 0.9761 -10.7966 -18.0853 0.0056 -0.4815 -1.3230 0.0000 0.0000 0.0000 19.3433 -4.1160 -5.7231 -3.4395 -11.3747 33.5543 -1.5929 7.3029 -22.6039 -0.3077 3.5662 -9.8594 -1.7632 1.8179 11.9095 0.3753 2.3055 1.5113 1.0093 1.2163 -5.1745 -12.3029 -8.1508 -16.8926 9.4759 -10.0704 29.5110 4.2161 -4.1871 14.0728 0.0000 -0.0000 0.0000 -87.8524 4.6433 17.0290 18.9711 -29.3827 -5.0166 -0.0000 -0.0000 5.3683 21.3979 21.9985 8.3503 -7.1250 0.0000 -0.0000 -7.7629 53.2704 -1.5867 0.0000 -0.0000 0.0000 86.1762 -4.2758 20.4647 -21.1986 32.0595 -6.1550 0.0000 0.0000 4.1667 -19.2578 6.7627 -2.3558 7.1250 -0.0000 -0.0000 5.5107 -22.8295 2.9542
-5.7846 17.4486 10.1700 0.6080 135.6100 -0.9148 0.0000 0.0000 0.0000 -23.2776 3.6531 -9.2341 3.6819 11.7246 34.7645 1.0067 -10.2081 -18.2336 0.0000 -0.0163 -0.0448 0.0000 0.0000 0.0000 19.4421 -4.5427 -5.9525 -3.6027 -11.6121 34.3731 -1.5768 7.7514 -22.4798 -0.2617 3.2911 -9.0901 -1.8582 1.8704 11.9786 0.3960 2.3622 1.4838 1.0723 1.2468 -5.2483 -12.2759 -8.1972 -16.7625 9.6472 -10.1993 29.7268 4.2726 -4.2057 14.1686 0.0000 -0.0000 0.0000 -87.7223 4.7938 17.5783 19.0155 -29.4379 -5.0384 -0.0000 -0.0000 5.2709 21.8861 21.1597 8.2507 -7.1250 0.0000 -0.0000 -6.9828 52.4892 -1.2922 0.0000 -0.0000 0.0000 86.2751 -4.3918 20.1531 -21.1243 31.9732 -6.1156 0.0000 0.0000 4.4182 -19.1695 7.1425 -2.4751 7.1250 -0.0000 -0.0000 5.5711 -22.4340 3.0374
-5.7351 17.4456 10.1882 0.3666 135.9350 -1.2462 0.0000 0.0000 0.0000 -23.3934 3.4809 -8.4484 3.5426 11.5256 34.0736 0.9697 -10.5578 -17.9864 0.0405 1.2997 3.5737 0.0000 0.0000 0.0000 19.2896 -5.0041 -6.3116 -3.7902 -11.8758 35.2941 -1.5399 7.9272 -22.2103 -0.2972 3.5055 -9.6896 -2.1850 1.9090 11.9668 0.3957 2.3704 1.4668 1.2546 1.2576 -5.2730 -12.2360 -8.1871 -16.7604 9.6560 -10.1877 30.0149 4.2864 -4.1805 14.2923 0.0000 0.0000 0.0000 -87.6695 4.9858 18.1141 19.1382 -29.5900 -5.0989 -0.0000 -0.0000 4.9251 21.3675 21.5286 8.1703 -7.1250 0.0000 -0.0000 -7.6296 52.7783 -1.4671 0.0000 0.0000 0.0000 86.3284 -4.4396 19.8515 -21.0670 31.9065 -6.0853 0.0000 0.0000 4.7505 -18.8697 7.3391 -2.5000 7.1250 -0.0000 -0.0000 5.7880 -22.2419 3.1823
-5.6854 17.4392 10.2101 0.1227 136.3030 -1.5102 0.0000 0.0000 0.0000 -23.4562 3.2359 -7.7748 3.4261 11.3549 33.4862 0.9270 -10.9511 -17.7060 0.1357 2.3740 6.5405 0.0000 0.0000 0.0000 19.1869 -5.2723 -6.7783 -4.0096 -12.1731 36.3472 -1.5085 7.9367 -21.9789 -0.3420 3.7581 -10.3971 -2.5476 1.9074 11.8746 0.3887 2.3225 1.4628 1.4620 1.2410 -5.2380 -12.1944 -8.1534 -16.7972 9.6626 -10.1400 30.2566 4.3030 -4.1417 14.3991 -0.0000 0.0000 0.0000 -87.6088 5.1597 18.6294 19.2632 -29.7444 -5.1608 -0.0000 -0.0000 4.5759 19.6877 22.6370 7.8414 -7.1250 0.0000 -0.0000 -9.7370 53.6067 -2.0760 -0.0000 0.0000 0.0000 86.4650 -4.3976 19.3654 -20.9701 31.7935 -6.0342 0.0000 0.0000 5.4118 -18.6564 7.5700 -2.5468 7.1250 -0.0000 -0.0000 5.9409 -22.0103 3.2987
-5.6389 17.4299 10.2339 0.0179 136.6360 -1.7107 0.0000 0.0000 0.0000 -23.3651 3.0405 -7.1923 3.3181 11.1930 32.9337 0.9262 -10.9717 -17.7042 0.1377 2.3919 6.5900 0.0000 0.0000 0.0000 19.1711 -5.4386 -7.2694 -4.2622 -12.5014 37.5296 -1.4764 8.1341 -21.7431 -0.3941 4.0309 -11.1636 -2.7382 1.9271 11.9128 0.3408 2.3210 1.4585 1.5180 1.2443 -5.2691 -12.1186 -8.1585 -16.7595 9.7218 -10.1868 30.3297 4.3114 -4.1395 14.4293 0.0000 -0.0000 0.0000 -87.4245 5.2540 19.0980 19.3404 -29.8394 -5.1991 -0.0000 -0.0000 4.4430 17.7492 23.3750 7.2374 -7.1250 0.0000 -0.0000 -12.0047 53.9885 -2.6821 0.0000 -0.0000 0.0000 86.7627 -4.2864 18.7120 -20.8246 31.6231 -5.9577 0.0000 0.0000 6.0215 -18.5890 8.0126 -2.6841 7.1250 -0.0000 -0.0000 5.9853 -21.5503 3.3865
-5.5950 17.4222 10.2568 -0.2777 137.0350 -2.0057 0.0000 0.0000 0.0000 -23.4176 2.7494 -6.6279 3.2164 11.0374 32.4062 0.9272 -11.0156 -17.7213 0.1154 2.1899 6.0308 0.0000 0.0000 0.0000 18.9110 -5.7935 -7.9294 -4.5499 -12.8582 38.8401 -1.4096 8.7484 -21.2641 -0.4112 4.1165 -11.4046 -3.0816 1.9088 11.9995 0.2903 2.2442 1.3969 1.6674 1.2146 -5.3893 -12.0991 -8.1370 -16.7104 9.7850 -10.1758 30.4808 4.3467 -4.1157 14.4881 -0.0000 0.0000 0.0000 -87.2670 5.3582 19.4920 19.3293 -29.8258 -5.1936 -0.0000 -0.0000 4.1937 17.8984 23.1284 7.2297 -7.1250 0.0000 -0.0000 -11.7468 53.7694 -2.5601 -0.0000 0.0000 0.0000 86.9662 -4.3013 18.3197 -20.7716 31.5607 -5.9299 0.0000 0.0000 6.0450 -18.7396 8.0812 -2.7304 7.1250 -0.0000 -0.0000 5.8756 -21.4705 3.3345
-5.5512 17.4174 10.2776 -0.6734 137.5740 -2.3639 0.0000 0.0000 0.0000 -23.5665 2.3760 -6.1129 3.1172 10.8825 31.8845 0.9510 -11.1172 -17.9420 0.0453 1.3736 3.7773 0.0000 0.0000 0.0000 18.4835 -6.3965 -8.7208 -4.8706 -13.2366 40.2607 -1.3085 9.5927 -20.5585 -0.3986 4.0537 -11.2278 -3.4835 1.8405 11.9957 0.2285 2.0992 1.4045 1.8536 1.1518 -5.3831 -12.1251 -8.1083 -16.6553 9.8546 -10.1458 30.5132 4.3902 -4.0940 14.4930 -0.0000 0.0000 0.0000 -87.2205 5.3329 19.5940 19.2361 -29.7110 -5.1473 -0.0000 -0.0000 4.4735 19.7283 22.5930 7.8443 -7.1250 0.0000 -0.0000 -9.6786 53.5695 -2.0546 -0.0000 0.0000 0.0000 87.1565 -4.2568 18.0353 -20.7709 31.5600 -5.9296 0.0000 0.0000 5.8277 -19.0903 7.8350 -2.7012 7.1250 -0.0000 -0.0000 5.6229 -21.7101 3.1590
